<?xml version="1.0" standalone="no"?>
<!DOCTYPE svg PUBLIC "-//W3C//DTD SVG 20010904//EN"
 "http://www.w3.org/TR/2001/REC-SVG-20010904/DTD/svg10.dtd">
<svg version="1.0" xmlns="http://www.w3.org/2000/svg"
 width="10198.000000pt" height="4978.000000pt" viewBox="0 0 10198.000000 4978.000000"
 preserveAspectRatio="xMidYMid meet">

<g transform="translate(0.000000,4978.000000) scale(0.100000,-0.100000)"
fill="#000000" stroke="none">
<path d="M12960 26645 l0 -11665 1965 0 1965 0 0 7123 c0 4182 -4 7392 -10
7777 -15 1034 -34 1787 -66 2640 -8 234 -14 440 -12 458 2 24 30 -42 117 -281
437 -1195 1095 -2919 1692 -4432 33 -82 1293 -3104 2802 -6715 l2743 -6565
1569 0 1570 0 2742 6565 c1574 3767 2835 6799 2959 7115 561 1426 1131 2906
1556 4040 66 176 124 326 129 335 6 10 8 -6 4 -45 -10 -125 -40 -778 -60
-1290 -14 -374 -22 -640 -47 -1505 -8 -277 -12 -2615 -15 -7807 l-4 -7413
1966 0 1965 0 0 11665 0 11665 -2701 -2 -2701 -3 -2769 -6605 c-1523 -3633
-2857 -6823 -2963 -7090 -599 -1497 -1097 -2865 -1502 -4130 -47 -146 -87
-272 -90 -280 -3 -8 -32 73 -65 180 -416 1355 -918 2793 -1506 4305 -120 309
-5652 13528 -5694 13607 -9 17 -123 18 -2774 18 l-2765 0 0 -11665z"/>
<path d="M48810 32033 c-1460 -65 -2707 -453 -3820 -1189 -580 -383 -1100
-856 -1512 -1376 -744 -938 -1235 -2040 -1428 -3208 -11 -69 -23 -137 -26
-153 l-6 -27 1819 2 1818 3 8 70 c49 457 201 962 397 1319 472 857 1306 1422
2360 1600 310 53 418 60 835 60 419 0 540 -8 845 -60 714 -120 1326 -406 1785
-833 260 -243 456 -504 614 -822 179 -359 278 -737 311 -1189 15 -204 13 -690
-2 -694 -7 -2 -830 -88 -1828 -191 -998 -103 -1923 -200 -2055 -216 -2190
-266 -3859 -773 -4990 -1516 -565 -371 -974 -768 -1300 -1258 -234 -353 -396
-700 -525 -1127 -205 -679 -274 -1568 -180 -2319 163 -1301 852 -2412 1953
-3147 863 -577 1883 -913 3087 -1017 1565 -134 2882 144 4070 860 399 241 709
476 999 760 305 299 513 566 706 907 l75 133 0 -1212 0 -1213 1800 0 1800 0 0
5358 c0 3267 -4 5439 -10 5567 -63 1376 -434 2511 -1147 3507 -651 910 -1550
1597 -2671 2042 -848 337 -1739 520 -2807 576 -169 9 -803 11 -975 3z m4007
-9595 c-7 -542 -31 -806 -112 -1197 -89 -430 -211 -783 -411 -1186 -337 -682
-778 -1206 -1387 -1648 -775 -564 -1750 -840 -2790 -788 -632 31 -1071 132
-1491 342 -749 375 -1132 1026 -1103 1874 22 624 206 1085 583 1461 521 519
1393 849 2819 1068 127 19 788 106 1470 191 682 86 1497 189 1810 229 314 40
581 74 594 75 l24 1 -6 -422z"/>
</g>
</svg>
